<?xml version="1.0" standalone="no"?>
<!DOCTYPE svg PUBLIC "-//W3C//DTD SVG 20010904//EN"
 "http://www.w3.org/TR/2001/REC-SVG-20010904/DTD/svg10.dtd">
<svg version="1.0" xmlns="http://www.w3.org/2000/svg"
 width="1000.000000pt" height="1000.000000pt" viewBox="0 0 1000.000000 1000.000000"
 preserveAspectRatio="xMidYMid meet">

<g transform="translate(0.000000,1000.000000) scale(0.100000,-0.100000)"
fill="#000000" stroke="none">
<path d="M5340 9983 c0 -10 -25 -232 -54 -493 -30 -261 -53 -476 -51 -478 5
-5 195 -25 199 -21 2 2 14 97 27 212 l22 207 30 0 c47 0 96 -29 116 -69 10
-20 42 -112 71 -206 28 -93 55 -173 59 -178 10 -10 190 -31 198 -23 8 8 -101
376 -129 434 -11 23 -36 53 -55 66 l-34 24 34 6 c50 9 111 58 144 113 24 41
28 58 27 123 0 86 -22 140 -76 185 -68 57 -110 67 -470 110 -52 6 -58 5 -58
-12z m348 -199 c53 -34 53 -131 1 -184 -28 -28 -36 -30 -103 -30 -40 0 -75 2
-77 5 -3 2 0 53 7 112 7 60 13 113 14 119 0 15 128 -3 158 -22z"/>
<path d="M4400 9965 c-68 -19 -154 -77 -196 -132 -71 -93 -104 -251 -84 -400
30 -227 131 -388 278 -443 65 -25 191 -29 263 -10 251 68 362 329 279 654 -25
98 -58 161 -120 229 -77 84 -139 111 -265 114 -66 2 -119 -2 -155 -12z m196
-166 c105 -50 170 -213 162 -401 -4 -81 -10 -106 -34 -155 -79 -159 -261 -149
-343 19 -85 173 -79 406 14 501 56 58 129 71 201 36z"/>
<path d="M3415 9744 c-143 -51 -263 -95 -267 -96 -6 -3 317 -926 327 -937 3
-3 179 55 192 64 1 0 -31 95 -72 210 -41 116 -75 213 -75 216 0 3 73 32 163
64 89 32 163 59 165 60 2 2 -47 147 -53 153 -1 1 -75 -23 -164 -54 -92 -32
-166 -53 -170 -48 -5 5 -22 49 -40 97 -22 64 -28 89 -18 92 55 21 351 125 353
125 1 0 -10 34 -24 75 -18 50 -32 75 -42 74 -8 -1 -132 -43 -275 -95z"/>
<path d="M6999 9538 c-66 -130 -399 -821 -399 -827 0 -7 83 -50 148 -78 l33
-14 84 173 c83 170 97 189 143 203 l22 6 0 -253 0 -253 97 -45 c53 -25 101
-47 106 -49 7 -2 8 110 3 340 l-7 345 221 99 c121 54 220 102 220 105 0 4 -48
29 -106 56 l-107 48 -198 -102 c-110 -57 -199 -101 -199 -99 0 3 34 75 76 161
42 86 75 158 73 160 -7 6 -168 86 -174 86 -2 0 -19 -28 -36 -62z"/>
<path d="M1994 9001 l-262 -197 50 -67 50 -66 91 68 91 69 245 -328 c136 -181
249 -329 254 -330 10 0 157 109 157 118 0 4 -111 155 -246 336 -135 180 -244
329 -242 331 2 1 42 31 90 67 l88 65 -50 67 c-28 36 -52 66 -53 65 -1 0 -120
-89 -263 -198z"/>
<path d="M7927 9068 c-70 -95 -537 -770 -537 -778 0 -9 160 -124 164 -118 13
18 554 796 559 805 4 7 -23 32 -73 67 -43 31 -82 56 -84 56 -3 0 -16 -15 -29
-32z"/>
<path d="M8310 8537 c-94 -32 -154 -70 -235 -151 -133 -133 -179 -229 -180
-376 0 -87 3 -101 33 -164 42 -90 150 -198 243 -243 100 -49 106 -48 145 22
19 33 34 62 34 65 0 3 -28 20 -62 37 -148 72 -214 156 -206 258 7 79 57 173
136 253 122 123 251 163 359 111 47 -23 133 -117 161 -176 9 -18 19 -33 23
-33 15 0 129 73 129 82 0 21 -61 115 -109 169 -133 148 -307 202 -471 146z"/>
<path d="M1370 8442 c-89 -59 -196 -172 -227 -238 -50 -108 -35 -202 46 -287
60 -64 104 -82 196 -81 71 0 90 4 165 38 116 53 209 85 244 86 19 0 39 -11 62
-34 39 -39 45 -85 18 -142 -22 -46 -118 -133 -187 -169 -31 -17 -57 -32 -57
-35 0 -10 71 -140 77 -140 3 0 37 17 77 37 47 25 98 64 152 118 100 99 137
168 142 268 5 87 -16 145 -77 210 -90 97 -182 118 -315 72 -44 -15 -116 -45
-160 -66 -99 -48 -160 -53 -196 -14 -32 35 -30 77 7 122 27 34 110 103 173
144 l24 16 -49 66 c-27 37 -51 67 -54 67 -3 -1 -31 -17 -61 -38z"/>
<path d="M8791 7590 c-222 -142 -407 -262 -412 -267 -12 -13 93 -174 110 -167
8 2 85 49 170 103 141 89 160 98 194 94 20 -3 37 -9 37 -13 0 -5 -59 -103
-131 -219 l-130 -210 52 -83 c29 -46 58 -89 64 -96 9 -10 47 47 180 270 93
156 173 288 179 295 8 8 68 4 244 -19 128 -16 236 -28 238 -25 3 2 -23 47 -56
100 -71 111 -42 100 -317 118 -101 7 -183 16 -183 20 0 4 65 49 145 99 l145
93 -20 31 c-11 17 -35 55 -53 84 -17 28 -36 52 -42 51 -5 0 -192 -117 -414
-259z"/>
<path d="M680 7590 c-38 -77 -42 -92 -30 -100 8 -6 141 -76 295 -157 154 -80
294 -157 312 -170 62 -47 80 -131 43 -203 -46 -91 -134 -108 -250 -50 -36 18
-176 90 -311 161 -135 71 -250 129 -255 129 -14 0 -98 -170 -88 -180 15 -14
558 -298 616 -322 76 -31 196 -31 256 0 65 34 119 88 162 161 111 190 89 367
-60 476 -36 27 -629 345 -642 345 -2 0 -24 -41 -48 -90z"/>
<path d="M9520 6841 c-127 -39 -185 -129 -202 -319 -20 -231 -37 -270 -119
-279 -38 -4 -50 -1 -77 22 -59 50 -91 142 -95 272 l-2 71 -44 6 c-24 3 -62 6
-84 6 l-40 0 6 -117 c10 -220 94 -382 231 -444 84 -38 232 -15 306 48 70 58
95 137 109 340 10 145 26 183 84 197 75 19 117 -49 139 -224 6 -47 12 -86 12
-87 1 -1 37 4 81 11 l80 12 -3 66 c-3 82 -32 200 -66 267 -57 111 -129 162
-232 160 -32 0 -70 -4 -84 -8z"/>
<path d="M155 6443 c-25 -82 -50 -161 -56 -177 -5 -16 -8 -30 -7 -31 6 -4 132
-45 140 -45 4 0 17 34 29 75 12 41 26 75 32 75 17 0 521 -161 552 -177 80 -41
90 -74 50 -161 -14 -30 -25 -55 -25 -57 0 -5 152 -47 156 -42 3 3 19 38 36 79
72 176 39 287 -110 362 -26 13 -202 72 -392 131 -190 59 -348 109 -352 111 -4
3 -28 -62 -53 -143z"/>
<path d="M4030 6333 c-60 -26 -127 -81 -179 -148 -100 -127 -153 -129 -426
-17 -171 70 -477 111 -549 73 -37 -20 -41 -46 -22 -154 47 -275 59 -591 31
-783 -15 -99 -25 -137 -114 -419 -61 -191 -91 -353 -101 -540 -5 -88 -14 -196
-20 -240 -13 -87 -8 -201 10 -251 20 -57 151 -103 415 -146 49 -8 347 -12 980
-13 798 -1 929 -3 1065 -19 201 -23 903 -34 1089 -17 432 39 1082 213 1132
302 22 39 16 247 -9 342 -28 101 -49 129 -125 167 -106 52 -182 62 -452 59
-192 -1 -253 2 -305 15 -36 8 -73 16 -83 16 -27 0 -64 -43 -77 -90 -17 -61
-49 -90 -103 -90 -35 0 -49 6 -73 31 -24 25 -29 40 -31 82 0 29 -2 62 -2 74
-2 42 -47 79 -141 117 -144 57 -185 47 -239 -61 -44 -89 -117 -109 -177 -49
-40 40 -43 72 -14 146 24 60 26 117 6 146 -16 22 -166 117 -204 129 -57 17
-94 -4 -190 -108 -38 -43 -46 -47 -88 -47 -37 0 -51 5 -75 29 -44 44 -41 95
10 158 95 120 95 187 0 282 -55 55 -96 81 -130 81 -35 0 -105 -37 -165 -87
-27 -24 -64 -45 -81 -49 -79 -16 -151 82 -110 152 7 11 44 48 84 82 75 65 101
110 88 159 -15 60 -119 176 -169 189 -36 9 -88 -11 -154 -61 -32 -23 -68 -48
-80 -54 -84 -45 -182 52 -138 137 8 16 45 53 81 82 81 64 99 97 92 161 -7 60
-56 156 -105 208 -33 35 -45 41 -78 40 -21 0 -55 -7 -74 -16z m-240 -728 c181
-64 310 -249 310 -445 0 -233 -171 -433 -403 -472 -143 -24 -303 30 -409 137
-276 278 -111 758 277 803 71 9 163 -1 225 -23z m3266 -1146 c77 -14 171 -64
190 -102 41 -78 58 -290 29 -347 -33 -64 -323 -161 -701 -234 -395 -76 -559
-80 -1539 -30 -330 17 -833 22 -1470 14 -417 -5 -479 0 -677 51 -109 27 -145
46 -158 82 -15 45 -13 201 4 242 13 30 20 35 49 35 19 0 87 -16 153 -35 205
-60 268 -70 479 -69 105 0 298 7 430 14 132 8 386 15 565 14 289 0 349 -3 540
-27 384 -47 440 -51 735 -51 231 0 314 3 410 18 160 24 326 68 451 117 91 37
105 45 119 76 16 34 16 37 -16 130 -28 80 -31 96 -18 104 20 12 353 11 425 -2z"/>
<path d="M482 5239 c-154 -26 -281 -154 -312 -316 -49 -249 186 -487 437 -443
195 34 324 185 324 380 1 240 -211 419 -449 379z"/>
<path d="M9462 5240 c-118 -17 -231 -104 -286 -220 -28 -58 -31 -75 -31 -160
0 -86 3 -101 32 -162 141 -298 556 -297 697 2 28 58 31 75 31 160 0 82 -4 103
-27 152 -31 67 -105 150 -163 183 -68 40 -166 57 -253 45z"/>
<path d="M1258 3850 c-32 -10 -64 -20 -72 -23 -12 -5 -10 -19 10 -83 14 -42
23 -78 22 -79 -2 -2 -122 -40 -268 -86 -378 -118 -409 -117 -432 11 -6 36 -13
67 -14 69 -4 4 -137 -40 -148 -49 -11 -11 20 -152 46 -207 46 -99 140 -143
261 -123 56 9 752 221 764 233 5 6 -95 338 -106 349 -3 3 -32 -2 -63 -12z"/>
<path d="M8738 3748 c-47 -63 -99 -162 -124 -234 -54 -162 -13 -281 121 -352
40 -21 64 -26 120 -26 100 0 148 24 264 138 53 52 114 106 135 120 68 45 137
31 172 -36 32 -62 -5 -174 -98 -294 l-49 -64 58 -55 58 -55 58 62 c63 67 135
202 156 290 38 160 -21 296 -155 363 -48 24 -72 29 -129 30 -99 0 -143 -24
-290 -165 -82 -79 -133 -120 -154 -125 -38 -8 -80 11 -100 47 -14 24 -13 32 2
80 9 30 42 92 72 138 30 46 55 85 55 86 0 3 -136 84 -142 84 -3 0 -17 -15 -30
-32z"/>
<path d="M1215 3135 c-334 -174 -403 -222 -445 -310 -45 -93 -36 -202 27 -329
44 -87 110 -158 181 -193 70 -34 168 -36 250 -5 43 17 626 315 642 329 3 3
-17 46 -43 97 l-48 93 -317 -166 c-307 -161 -319 -166 -377 -166 -75 0 -105
20 -141 93 -32 64 -28 109 14 161 30 37 72 62 427 247 121 64 224 119 228 123
5 5 -13 49 -40 99 l-49 90 -309 -163z"/>
<path d="M8447 3070 c-31 -49 -60 -95 -63 -103 -3 -8 29 -106 70 -218 42 -112
76 -207 76 -211 0 -4 -63 33 -140 82 -76 50 -145 93 -153 96 -9 3 -31 -23 -65
-76 -29 -45 -52 -84 -52 -88 0 -4 190 -128 421 -276 348 -221 423 -266 434
-255 7 8 33 47 59 87 l46 72 -73 47 c-274 177 -265 169 -276 209 -6 21 -9 39
-7 41 2 2 117 -10 256 -27 138 -17 253 -30 254 -28 46 67 124 198 117 198 -26
0 -686 71 -689 74 -2 3 -35 105 -74 228 -38 122 -73 226 -77 230 -3 4 -32 -33
-64 -82z"/>
<path d="M1874 2391 c-23 -11 -60 -35 -82 -56 -97 -87 -110 -195 -48 -399 46
-151 47 -206 7 -247 -24 -23 -38 -29 -73 -29 -53 0 -94 24 -140 81 -44 56 -71
102 -93 162 -10 26 -22 47 -28 47 -6 0 -42 -10 -80 -22 -66 -22 -68 -23 -63
-50 10 -51 72 -172 120 -236 58 -75 114 -123 186 -156 184 -86 410 52 411 250
1 60 -24 171 -61 278 -11 33 -20 78 -20 102 0 35 5 47 31 68 69 58 135 14 219
-147 l45 -85 60 34 c33 19 67 39 75 43 13 8 11 16 -9 57 -66 138 -171 260
-256 300 -62 30 -143 31 -201 5z"/>
<path d="M7939 2322 c-94 -62 -178 -153 -221 -239 -31 -64 -33 -73 -33 -178 0
-102 2 -114 31 -175 81 -170 239 -313 397 -362 100 -30 203 -23 292 21 96 47
191 145 243 250 23 46 42 88 42 95 0 11 -126 84 -132 76 -2 -3 -26 -43 -53
-88 -108 -182 -206 -219 -367 -140 -87 43 -198 155 -238 239 -38 80 -41 160
-9 226 23 48 113 130 180 164 38 19 40 21 26 42 -7 12 -26 43 -41 70 -15 26
-31 47 -36 47 -4 0 -41 -22 -81 -48z"/>
<path d="M2457 1886 c-26 -35 -47 -68 -47 -72 0 -5 41 -38 90 -73 57 -41 87
-68 81 -75 -116 -154 -484 -652 -487 -660 -5 -15 155 -131 165 -120 5 5 118
155 251 334 134 179 247 324 253 322 5 -1 44 -30 87 -62 44 -33 83 -60 88 -60
4 0 19 15 32 33 13 17 34 46 47 64 l24 32 -238 177 c-131 97 -252 188 -269
200 l-30 24 -47 -64z"/>
<path d="M7292 1728 l-82 -59 18 -27 c11 -15 140 -200 287 -412 147 -212 268
-386 269 -387 5 -6 166 110 166 119 0 9 -543 794 -563 814 -9 9 -33 -3 -95
-48z"/>
<path d="M7005 1538 c-55 -28 -103 -55 -106 -59 -3 -5 -23 -100 -44 -212 -21
-111 -41 -208 -45 -215 -4 -8 -36 51 -80 143 -41 86 -77 158 -81 160 -4 3 -48
-14 -98 -38 l-91 -42 215 -445 c119 -244 219 -448 224 -453 5 -5 49 11 100 35
l91 43 -86 175 c-76 156 -85 179 -79 214 3 22 8 43 11 47 3 5 95 -64 206 -153
l201 -161 106 53 c87 43 103 54 90 64 -8 6 -132 101 -275 210 -142 110 -260
200 -262 201 -2 2 99 416 114 468 7 24 1 22 -111 -35z"/>
<path d="M3559 1264 c-28 -73 -319 -897 -321 -911 -3 -13 67 -45 168 -77 20
-6 26 8 94 201 41 115 77 212 81 217 4 5 77 -16 168 -48 87 -31 163 -56 168
-56 8 0 53 124 53 147 0 6 -73 36 -162 68 -90 31 -164 58 -166 60 -4 3 59 178
68 189 5 4 86 -19 180 -53 95 -34 177 -61 184 -61 6 0 23 34 37 74 22 62 24
76 12 80 -8 3 -128 46 -268 96 -140 50 -261 93 -269 96 -11 4 -19 -3 -27 -22z"/>
<path d="M4443 1036 c-60 -19 -106 -50 -158 -108 -186 -207 -191 -630 -9 -798
120 -111 323 -140 471 -69 109 52 202 182 239 335 26 106 24 291 -5 373 -52
150 -135 230 -276 267 -63 17 -207 17 -262 0z m238 -171 c89 -47 137 -209 109
-375 -32 -192 -115 -300 -231 -300 -146 0 -229 155 -201 375 15 117 45 195 96
252 65 70 149 88 227 48z"/>
<path d="M5565 1044 c-11 -2 -98 -10 -192 -20 l-173 -17 0 -26 c0 -40 107
-971 112 -976 4 -5 172 13 193 19 7 3 3 68 -12 197 -30 265 -34 239 33 239 52
0 59 -3 93 -38 21 -20 79 -111 130 -200 93 -163 94 -164 125 -158 17 3 64 8
104 12 61 6 72 9 67 22 -3 9 -51 96 -107 194 -107 189 -149 243 -200 256 l-32
8 40 20 c48 25 100 91 115 147 20 76 -5 177 -61 240 -46 53 -153 89 -235 81z
m52 -198 c46 -54 37 -147 -18 -188 -21 -16 -137 -42 -147 -33 -7 6 -30 231
-24 237 10 9 79 16 127 12 28 -2 47 -10 62 -28z"/>
</g>
</svg>
